# xmcd
#
# Track frame offsets:
#	182
#	15022
#	38250
#	53127
#	67705
#	84852
#	96100
#	111125
#	125572
#	140870
#	156527
#	174235
#	188392
#	204815
#	219940
#	234895
#	247675
#	263412
#	278520
#	300097
#	331467
#
# Disc length: 4669 seconds
#
# Revision: 65536
# Processed by: cddbd v1.5.2PL0 Copyright (c) Steve Scherf et al.
# Submitted via: EZCDAudioConverter 7.1.1.1
#
DISCID=ee123b15
DTITLE=Various Artist - Can You Dig It? The '70s Soul Experience [CD3]
DYEAR=2001
DGENRE=Soul
TTITLE0=The Staple Singers - I'll Take You There
TTITLE1=The Dramatics - In The Rain
TTITLE2=The Stylistics - Betcha By Golly, Wow
TTITLE3=The Chi-Lites - Oh Girl
TTITLE4=Bill Withers - Lean On Me
TTITLE5=Joe Tex - I Gotcha
TTITLE6=Isaac Hayes - Do Your Thing
TTITLE7=The Spinners - I'll Be Around
TTITLE8=Cornelius Brothers and Sister Rose - Too Late To Turn Back Now
TTITLE9=Luther Ingram - (If Loving You Is Wrong) I Don't Want To Be Right
TTITLE10=Mel and Tim - Starting All Over Again
TTITLE11=The O'jays - Back Stabbers
TTITLE12=Tower Of Power - You're Still A Young Man
TTITLE13=The Main Ingredient - Everybody Plays The Fool
TTITLE14=Curtis Mayfield - Freddie's Dead (Theme From Superfly)
TTITLE15=Johnny Nash - I Can See Clearly Now
TTITLE16=Harold Melvin and The Blue Notes - If You Don't Know Me By Now
TTITLE17=Brighter Side Of Darkness - Love Jones
TTITLE18=Billy Paul - Me And Mrs. Jones
TTITLE19=The Temptations - Papa Was A Rollin' Stone
TTITLE20=Billy Preston - Outa-Space
EXTD=
EXTT0=
EXTT1=
EXTT2=
EXTT3=
EXTT4=
EXTT5=
EXTT6=
EXTT7=
EXTT8=
EXTT9=
EXTT10=
EXTT11=
EXTT12=
EXTT13=
EXTT14=
EXTT15=
EXTT16=
EXTT17=
EXTT18=
EXTT19=
EXTT20=
PLAYORDER=
